<svg width="44" height="44" xmlns="http://www.w3.org/2000/svg">

 <g>
  <title>Layer 1</title>
  <g id="svg_7">
   <ellipse ry="21.18174" rx="21.35954" id="svg_5" cy="22.50317" cx="22" stroke-opacity="0" stroke="#0f0f00" fill="#ffa706"/>
   <g>
    <path fill="#373737" d="m10.45,10.0739c-0.55229,0 -1,0.4477 -1,1c0,0.5522 0.44771,1 1,1l0,-2zm4.4957,1l0.9947,-0.1019c-0.0522,-0.5102 -0.4819,-0.8981 -0.9947,-0.8981l0,1zm1.6016,15.6403l-0.9948,0.1019c0.0017,0.0169 0.0039,0.0338 0.0065,0.0507l0.9883,-0.1526zm1.841,1.5369l0,-1.0001l-0.0111,0.0002l0.0111,0.9999zm11.5981,0l0.0512,-0.9987c-0.0171,-0.0009 -0.0341,-0.0013 -0.0512,-0.0013l0,1zm1.8409,-1.2295l0.9462,0.3238l0.001,-0.0032l-0.9472,-0.3206zm2.4485,-7.2326l0.9472,0.3207l0.0007,-0.0019l-0.9479,-0.3188zm-0.2577,-1.6273l-0.8104,0.586l0.0061,0.0082l0.8043,-0.5942zm-1.5832,-0.7594l0,1c0.0146,0 0.0292,-0.0003 0.0438,-0.0009l-0.0438,-0.9991zm-16.8449,-1c-0.5523,0 -1,0.4477 -1,1c0,0.5523 0.4477,1 1,1l0,-2zm26.41,5.8647c0,11.2052 -8.9662,20.2671 -20,20.2671l0,2c12.1621,0 22,-9.9813 22,-22.2671l-2,0zm-20,20.2671c-11.0338,0 -20,-9.0619 -20,-20.2671l-2,0c0,12.2858 9.83786,22.2671 22,22.2671l0,-2zm-20,-20.2671c0,-11.2051 8.9662,-20.267 20,-20.267l0,-2c-12.16214,0 -22,9.98125 -22,22.267l2,0zm20,-20.267c11.0338,0 20,9.0619 20,20.267l2,0c0,-12.28575 -9.8379,-22.267 -22,-22.267l0,2zm-11.55,10.0739l4.4957,0l0,-2l-4.4957,0l0,2zm3.5009,-0.8982l1.6016,15.6404l1.9896,-0.2038l-1.6017,-15.6403l-1.9895,0.2037zm1.6081,15.6911c0.1041,0.6743 0.4523,1.285 0.9753,1.7216l1.2817,-1.5353c-0.1536,-0.1282 -0.2514,-0.3035 -0.2804,-0.4915l-1.9766,0.3052zm0.9753,1.7216c0.5225,0.4363 1.185,0.6702 1.8651,0.6626l-0.0222,-1.9998c-0.2079,0.0023 -0.4071,-0.0695 -0.5612,-0.1981l-1.2817,1.5353zm1.854,0.6627l11.5981,0l0,-2l-11.5981,0l0,2zm11.5469,-0.0013c0.615,0.0315 1.2253,-0.1354 1.7377,-0.4776l-1.1108,-1.6632c-0.1524,0.1018 -0.3367,0.153 -0.5245,0.1434l-0.1024,1.9974zm1.7377,-0.4776c0.5128,-0.3424 0.9006,-0.8427 1.1006,-1.4268l-1.8923,-0.6477c-0.0562,0.1644 -0.1669,0.3097 -0.3191,0.4113l1.1108,1.6632zm1.1016,-1.43l2.4485,-7.2325l-1.8944,-0.6413l-2.4484,7.2325l1.8943,0.6413zm2.4492,-7.2344c0.1428,-0.4245 0.1809,-0.8769 0.1108,-1.3194l-1.9754,0.3129c0.0195,0.1234 0.009,0.2497 -0.0311,0.369l1.8957,0.6375zm0.1108,-1.3194c-0.0701,-0.4424 -0.2461,-0.8608 -0.5121,-1.2209l-1.6086,1.1884c0.0764,0.1035 0.1257,0.2219 0.1453,0.3454l1.9754,-0.3129zm-0.506,-1.2126c-0.2768,-0.3828 -0.6455,-0.6894 -1.071,-0.8935l-0.865,1.8033c0.1276,0.0612 0.2356,0.1519 0.3152,0.2621l1.6208,-1.1719zm-1.071,-0.8935c-0.4255,-0.2041 -0.8952,-0.2997 -1.3665,-0.279l0.0877,1.9981c0.1437,-0.0064 0.2861,0.0229 0.4138,0.0842l0.865,-1.8033zm-1.3226,-0.28l-16.8449,0l0,2l16.8449,0l0,-2zm-2.7615,17.1772c0.0154,0 0.0336,0.0059 0.0498,0.0218l-1.4014,1.4269c0.3615,0.355 0.848,0.5513 1.3516,0.5513l0,-2zm0.0498,0.0218c0.0169,0.0166 0.0297,0.0429 0.0297,0.0742l-2,0c0,0.5108 0.2068,0.9971 0.5689,1.3527l1.4014,-1.4269zm0.0297,0.0742c0,0.0313 -0.0128,0.0576 -0.0297,0.0741l-1.4014,-1.4268c-0.3621,0.3556 -0.5689,0.8418 -0.5689,1.3527l2,0zm-0.0297,0.0741c-0.0162,0.016 -0.0344,0.0218 -0.0498,0.0218l0,-2c-0.5036,0 -0.9901,0.1963 -1.3516,0.5514l1.4014,1.4268zm-0.0498,0.0218c-0.0153,0 -0.0336,-0.0058 -0.0498,-0.0218l1.4014,-1.4268c-0.3615,-0.3551 -0.848,-0.5514 -1.3516,-0.5514l0,2zm-0.0498,-0.0218c-0.0169,-0.0165 -0.0297,-0.0428 -0.0297,-0.0741l2,0c0,-0.5109 -0.2068,-0.9971 -0.5689,-1.3527l-1.4014,1.4268zm-0.0297,-0.0741c0,-0.0313 0.0128,-0.0576 0.0297,-0.0742l1.4014,1.4269c0.3621,-0.3556 0.5689,-0.8419 0.5689,-1.3527l-2,0zm0.0297,-0.0742c0.0162,-0.0159 0.0345,-0.0218 0.0498,-0.0218l0,2c0.5036,0 0.9901,-0.1963 1.3516,-0.5513l-1.4014,-1.4269zm-11.9165,-0.0218c0.0153,0 0.0336,0.0059 0.0498,0.0218l-1.4014,1.4269c0.3615,0.355 0.848,0.5513 1.3516,0.5513l0,-2zm0.0498,0.0218c0.0169,0.0166 0.0297,0.0429 0.0297,0.0742l-2,0c0,0.5108 0.2068,0.9971 0.5689,1.3527l1.4014,-1.4269zm0.0297,0.0742c0,0.0313 -0.0128,0.0576 -0.0297,0.0741l-1.4014,-1.4268c-0.3621,0.3556 -0.5689,0.8418 -0.5689,1.3527l2,0zm-0.0297,0.0741c-0.0162,0.016 -0.0345,0.0218 -0.0498,0.0218l0,-2c-0.5036,0 -0.9901,0.1963 -1.3516,0.5514l1.4014,1.4268zm-0.0498,0.0218c-0.0153,0 -0.0336,-0.0058 -0.0498,-0.0218l1.4014,-1.4268c-0.3615,-0.3551 -0.848,-0.5514 -1.3516,-0.5514l0,2zm-0.0498,-0.0218c-0.0169,-0.0165 -0.0297,-0.0428 -0.0297,-0.0741l2,0c0,-0.5109 -0.2068,-0.9971 -0.5689,-1.3527l-1.4014,1.4268zm-0.0297,-0.0741c0,-0.0313 0.0128,-0.0576 0.0297,-0.0742l1.4014,1.4269c0.3621,-0.3556 0.5689,-0.8419 0.5689,-1.3527l-2,0zm0.0297,-0.0742c0.0162,-0.0159 0.0345,-0.0218 0.0498,-0.0218l0,2c0.5036,0 0.9901,-0.1963 1.3516,-0.5513l-1.4014,-1.4269z"/>
   </g>
  </g>
 </g>
</svg>