<svg width="40" height="28" xmlns="http://www.w3.org/2000/svg" fill="none">

 <g>
  <title>Layer 1</title>
  <ellipse stroke-opacity="0" ry="13.24951" rx="19.83881" id="svg_2" cy="13.87428" cx="19.9581" stroke="#0f0f00" fill="#00bcff"/>
  <path id="svg_8" d="m-32.57216,39.55029l0.03172,0l0.0098,-0.03172l0.0098,0.03172l0.03172,0l-0.02567,0.01961l0.0098,0.03172l-0.02567,-0.01961l-0.02567,0.01961l0.0098,-0.03172l-0.02567,-0.01961z" stroke-opacity="0" stroke="#0f0f00" fill="#00bcff"/>
  <path id="svg_16" d="m0.36387,11.92973l1.63739,-3.83187l3.14304,-2.95357l6.96361,1.88206l4.01506,-0.81556l4.83061,-1.69385c2.34212,0.73191 4.68423,1.46382 7.02635,2.19573l3.95232,-0.06274l3.45044,-1.19197l3.04266,3.07403l1.03513,3.57591l-8.46926,2.82309l-0.18821,2.25847l-2.19573,0.37641l-1.00376,2.00753l-1.44291,-0.06274l-0.62735,1.12923l-1.94479,0.37641l-0.65872,0.62735l-1.03513,0.12547l-1.94479,-0.69009l-1.38018,0.75282l-1.50565,-0.62735l-0.37641,-0.87829l-1.31744,0.06274l-1.12923,-0.75282l-0.12547,-0.56462l-0.69009,0.25094l-1.50565,-0.81556l-0.12547,-0.81556l-1.38018,-0.25094l-1.0665,-0.94103l0.0941,-1.41154l-2.0389,-1.1606" opacity="NaN" stroke-opacity="0" stroke="#0f0f00" fill="#ffffff"/>
  <path id="svg_11" d="m37.19269,7.35548" opacity="NaN" stroke-opacity="0" stroke="#0f0f00" fill="#ffffff"/>
  <path id="svg_13" d="m7.29236,8.10299" opacity="NaN" stroke-opacity="0" stroke="#0f0f00" fill="#ffffff"/>
  <path id="svg_1" fill="#0A0080" d="m20,0.1875c-11.0625,0 -20,5.875 -20,13.0625l0,0.75c0,7.625 7.8125,13.8125 20,13.8125c12.25,0 20,-6.1875 20,-13.8125l0,-0.75c0,-7.1875 -8.9375,-13.0625 -20,-13.0625zm19.125,11.625c-4.375,0.9375 -7.5625,2.375 -8.375,2.75c-1.875,-1.625 -6.3125,-5.4375 -7.4375,-6.375c-0.6875,-0.5 -1.125,-0.75 -1.5625,-0.875c-0.25,-0.125 -0.5,-0.1875 -0.8125,-0.1875c-0.3125,0 -0.625,0.0625 -0.9375,0.1875c-0.75,0.25 -1.5625,0.875 -2.25,1.4375l-0.0625,0c-0.6875,0.5625 -1.375,1.125 -1.9375,1.25c-0.25,0.0625 -0.5,0.0625 -0.6875,0.0625c-0.625,0 -1.125,-0.1875 -1.375,-0.4375c-0.0625,-0.0625 0,-0.125 0.0625,-0.1875l1.6875,-1.8125c1.3125,-1.3125 2.5625,-2.5625 5.375,-2.625l0.125,0c1.75,0 3.5625,0.8125 3.75,0.875c1.6875,0.8125 3.375,1.25 5.0625,1.25c1.8125,0 3.625,-0.4375 5.5625,-1.3125c2.0625,1.6875 3.375,3.75 3.8125,6zm-19.125,-10.875c5.875,0 11.125,1.6875 14.625,4.3125c-1.6875,0.75 -3.3125,1.125 -4.875,1.125c-1.625,0 -3.1875,-0.375 -4.75,-1.125c-0.0625,-0.0625 -2.0625,-0.9375 -4.0625,-0.9375l-0.1875,0c-2.375,0.0625 -3.75,0.875 -4.625,1.625c-0.875,0 -1.625,0.25 -2.3125,0.4375c-0.625,0.1875 -1.125,0.3125 -1.625,0.3125l-0.625,0c-0.5625,0 -3.5,-0.75 -5.8125,-1.625c3.5,-2.5625 8.5625,-4.125 14.25,-4.125zm-15,4.5625c2.4375,1 5.375,1.75 6.3125,1.8125c0.25,0 0.5625,0.0625 0.8125,0.0625c0.625,0 1.25,-0.1875 1.8125,-0.3125c0.375,-0.125 0.75,-0.1875 1.125,-0.3125c-0.125,0.125 -0.25,0.1875 -0.3125,0.3125l-1.625,1.875c-0.125,0.125 -0.4375,0.5 -0.25,0.9375c0.0625,0.1875 0.25,0.375 0.4375,0.5c0.375,0.25 1.125,0.4375 1.8125,0.4375c0.25,0 0.5,0 0.6875,-0.0625c0.6875,-0.1875 1.4375,-0.75 2.25,-1.375c0.625,-0.5 1.5,-1.125 2.1875,-1.3125c0.1875,-0.0625 0.4375,-0.0625 0.625,-0.0625l0.1875,0c0.4375,0.0625 0.875,0.1875 1.6875,0.8125c1.375,1.0625 7.5625,6.4375 7.625,6.5c0,0 0.375,0.3125 0.375,0.875c0,0.3125 -0.1875,0.5625 -0.5,0.8125c-0.25,0.1875 -0.5625,0.25 -0.8125,0.25c-0.4375,0 -0.6875,-0.1875 -0.6875,-0.1875c0,0 -2.125,-1.9375 -2.9375,-2.625c-0.125,-0.125 -0.25,-0.1875 -0.375,-0.1875c-0.0625,0 -0.125,0 -0.1875,0.0625c-0.125,0.125 0,0.375 0.1875,0.5l2.4375,2.5c0,0 0.3125,0.3125 0.3125,0.6875c0,0.4375 -0.1875,0.75 -0.5625,1c-0.3125,0.1875 -0.5625,0.3125 -0.875,0.3125c-0.375,0 -0.625,-0.1875 -0.6875,-0.1875l-0.375,-0.375c-0.625,-0.625 -1.3125,-1.3125 -1.8125,-1.6875c-0.125,-0.125 -0.25,-0.1875 -0.375,-0.1875c-0.0625,0 -0.125,0 -0.125,0.0625c-0.0625,0.0625 -0.125,0.1875 0.0625,0.375l0.125,0.125l1.8125,2c0,0 0.375,0.4375 0.0625,0.875l-0.0625,0.0625l-0.1875,0.1875c-0.3125,0.25 -0.6875,0.25 -0.875,0.25l-0.25,0c-0.1875,-0.0625 -0.3125,-0.0625 -0.375,-0.125c-0.125,-0.125 -1,-1 -1.75,-1.625c-0.125,-0.0625 -0.25,-0.1875 -0.375,-0.1875c-0.0625,0 -0.125,0 -0.1875,0.0625c-0.125,0.1875 0.0625,0.375 0.1875,0.5l1.5625,1.6875c0,0 0,0.0625 -0.0625,0.125c-0.0625,0.0625 -0.25,0.25 -0.8125,0.3125l-0.1875,0c-0.5625,0 -1.1875,-0.25 -1.5,-0.4375c0.125,-0.3125 0.1875,-0.625 0.1875,-1c0,-1.25 -1,-2.3125 -2.3125,-2.3125l-0.0625,0c0.0625,-0.5625 -0.0625,-1.6875 -1.1875,-2.125c-0.5149,-0.2227 -1.0945,-0.245 -1.625,-0.0625c-0.25,-0.4375 -0.625,-0.75 -1.125,-0.9375c-0.25,-0.125 -0.5625,-0.125 -0.8125,-0.125c-0.4375,0 -0.875,0.125 -1.25,0.4375c-0.1836,-0.2231 -0.4119,-0.4051 -0.6703,-0.5343c-0.2584,-0.1292 -0.5411,-0.2027 -0.8297,-0.2157c-0.5,0 -1,0.1875 -1.375,0.5625c-0.5,-0.375 -2.375,-1.5625 -7.4375,-2.75c-0.25,-0.0625 -0.8125,-0.1875 -1.125,-0.3125c0.5,-2.4375 1.9375,-4.5 4.0625,-6.25zm9.4375,13.25l-0.125,-0.0625c-0.0625,0 -0.0625,0 -0.125,0.0625c-0.25,0.1875 -0.5,0.25 -0.75,0.25c-0.125,0 -0.25,0 -0.4375,-0.0625c-1.1875,-0.4375 -1.0625,-1.5625 -1,-1.875c0,-0.0625 0,-0.125 -0.0625,-0.125l-0.0625,-0.0625l-0.0625,0.0625c-0.25,0.25 -0.5,0.3125 -0.8125,0.3125c-0.3315,0 -0.6495,-0.1317 -0.8839,-0.3661c-0.2344,-0.2344 -0.3661,-0.5524 -0.3661,-0.8839c0,-0.6875 0.5625,-1.25 1.25,-1.25c0.625,0 1.125,0.4375 1.1875,1.0625l0.0625,0.3125l0.1875,-0.25c0,-0.0625 0.5,-0.75 1.4375,-0.75c0.1875,0 0.375,0 0.5,0.0625c0.75,0.25 0.875,0.875 0.875,1.125c0,0.1875 0.125,0.1875 0.125,0.1875c0.0625,0 0.125,-0.0625 0.125,-0.0625c0.125,-0.125 0.4375,-0.375 0.875,-0.375c0.1875,0 0.4375,0.0625 0.6875,0.125c1.125,0.5 0.625,1.9375 0.625,1.9375c-0.125,0.25 -0.125,0.375 0,0.4375l0.125,0c0.0625,0 0.125,0 0.25,-0.0625c0.125,-0.0625 0.375,-0.125 0.625,-0.125c0.875,0 1.5625,0.6875 1.5625,1.5625c0,0.875 -0.6875,1.5625 -1.5625,1.5625c-0.875,0 -1.5625,-0.6875 -1.5625,-1.5c0,-0.0625 0,-0.25 -0.1875,-0.25c-0.0625,0 -0.125,0.0625 -0.1875,0.125c-0.1875,0.1875 -0.4375,0.375 -0.75,0.375c-0.1875,0 -0.3125,-0.0625 -0.5,-0.125c-0.875,-0.375 -0.875,-1 -0.875,-1.25c-0.1875,0 -0.125,-0.125 -0.1875,-0.125zm5.5625,6.8125c-10.625,0 -19.25,-5.5 -19.25,-12.3125c0,-0.25 0,-0.5625 0.0625,-0.8125c0.0625,0 0.9375,0.25 1.125,0.25c5.1875,1.125 6.875,2.375 7.1875,2.5625c-0.125,0.25 -0.125,0.5 -0.125,0.75c0,1.0625 0.875,1.9375 1.9375,1.9375c0.125,0 0.25,0 0.375,-0.0625c0.0791,0.3792 0.2522,0.7324 0.5034,1.0272c0.2511,0.2949 0.5723,0.5219 0.9341,0.6603c0.25,0.0625 0.4375,0.125 0.6875,0.125c0.125,0 0.3125,0 0.4375,-0.0625c0.125,0.375 0.5,0.8125 1.1875,1.125c0.25,0.125 0.5,0.1875 0.75,0.1875c0.1875,0 0.375,-0.0625 0.5625,-0.125c0.1381,0.3552 0.3635,0.6698 0.6553,0.9149c0.2917,0.2451 0.6406,0.4127 1.0142,0.4875c0.3737,0.0747 0.7602,0.0541 1.1238,-0.0599c0.3636,-0.114 0.6926,-0.3178 0.9567,-0.5925c0.375,0.1875 1.125,0.5625 1.9375,0.5625l0.3125,0c0.8125,-0.125 1.125,-0.375 1.3125,-0.625c0,-0.0625 0.0625,-0.0625 0.0625,-0.125c0.1875,0.0625 0.375,0.125 0.625,0.125c0.4375,0 0.8125,-0.125 1.25,-0.4375c0.4375,-0.3125 0.6875,-0.6875 0.75,-1.0625c0.125,0 0.25,0.0625 0.4375,0.0625c0.4375,0 0.875,-0.125 1.3125,-0.4375c0.8125,-0.5 0.9375,-1.1875 0.9375,-1.625c0.125,0 0.3125,0.0625 0.4375,0.0625c0.4375,0 0.8125,-0.125 1.1875,-0.375c0.5,-0.3125 0.8125,-0.8125 0.8125,-1.375c0,-0.375 -0.0625,-0.75 -0.25,-1.125c1.3125,-0.5625 4.375,-1.6875 8,-2.5l0,0.625c0,6.6875 -8.625,12.25 -19.25,12.25z"/>
 </g>
</svg>